<svg width="60" height="60" viewBox="0 0 60 60" fill="none" xmlns="http://www.w3.org/2000/svg">
<path d="M30.0114 36.8709C28.4517 36.8709 27.0435 36.5279 25.7868 35.8419C24.5451 35.1559 23.5533 34.1983 22.8114 32.9692C22.0845 31.7401 21.7211 30.3109 21.7211 28.6816V14.1894C21.7211 12.5601 22.0845 11.1309 22.8114 9.90174C23.5533 8.67262 24.5451 7.71505 25.7868 7.02903C27.0435 6.34301 28.4517 6 30.0114 6C31.5558 6 32.9489 6.34301 34.1905 7.02903C35.4473 7.71505 36.4391 8.67262 37.1659 9.90174C37.8927 11.1309 38.2562 12.5601 38.2562 14.1894V28.6816C38.2562 30.3109 37.8927 31.7401 37.1659 32.9692C36.4391 34.1983 35.4473 35.1559 34.1905 35.8419C32.9489 36.5279 31.5558 36.8709 30.0114 36.8709ZM30.0114 45.5748C27.3918 45.5748 24.9842 45.1889 22.7886 44.4172C20.5931 43.6454 18.6852 42.5449 17.065 41.1157C15.4599 39.6865 14.2107 37.9714 13.3174 35.9705C12.4391 33.9696 12 31.7329 12 29.2604V25.1014C12 24.4725 12.2347 23.9437 12.7041 23.515C13.1886 23.0719 13.764 22.8504 14.4303 22.8504C15.1117 22.8504 15.6946 23.0719 16.1792 23.515C16.6637 23.9437 16.906 24.4725 16.906 25.1014V29.1103C16.906 31.54 17.4587 33.6623 18.564 35.4774C19.6845 37.2925 21.229 38.7003 23.1975 39.7008C25.1659 40.6869 27.4372 41.18 30.0114 41.18C32.5703 41.18 34.8341 40.6869 36.8025 39.7008C38.771 38.7003 40.3079 37.2925 41.4132 35.4774C42.5186 33.6623 43.0713 31.54 43.0713 29.1103V25.1014C43.0713 24.4725 43.3136 23.9437 43.7981 23.515C44.2826 23.0719 44.8656 22.8504 45.547 22.8504C46.2284 22.8504 46.8038 23.0719 47.2732 23.515C47.7577 23.9437 48 24.4725 48 25.1014V29.2604C48 31.7329 47.5533 33.9696 46.6599 35.9705C45.7817 37.9714 44.5325 39.6865 42.9123 41.1157C41.3073 42.5449 39.3994 43.6454 37.1886 44.4172C34.9931 45.1889 32.6006 45.5748 30.0114 45.5748ZM19.3817 54C18.7003 54 18.1098 53.7713 17.6101 53.314C17.1256 52.8709 16.8833 52.3421 16.8833 51.7276C16.8833 51.0844 17.1256 50.5342 17.6101 50.0768C18.1098 49.6338 18.7003 49.4122 19.3817 49.4122H40.6183C41.2997 49.4122 41.8827 49.6338 42.3672 50.0768C42.8669 50.5342 43.1167 51.0844 43.1167 51.7276C43.1167 52.3421 42.8669 52.8709 42.3672 53.314C41.8827 53.7713 41.2997 54 40.6183 54H19.3817ZM30.0114 52.9281C29.3603 52.9281 28.8 52.7066 28.3306 52.2635C27.8763 51.8205 27.6492 51.2845 27.6492 50.6557V44.2671C27.6492 43.6525 27.8763 43.1237 28.3306 42.6807C28.8 42.2233 29.3603 41.9946 30.0114 41.9946C30.6473 41.9946 31.1924 42.2233 31.6467 42.6807C32.1161 43.1237 32.3508 43.6525 32.3508 44.2671V50.6557C32.3508 51.2845 32.1161 51.8205 31.6467 52.2635C31.1924 52.7066 30.6473 52.9281 30.0114 52.9281Z" fill="#06351B"/>
</svg>
